<?xml version="1.0" encoding="UTF-8" standalone="no"?>
<!DOCTYPE svg PUBLIC "-//W3C//DTD SVG 1.1//EN" "http://www.w3.org/Graphics/SVG/1.1/DTD/svg11.dtd">
<svg width="100%" height="100%" viewBox="0 0 359 359" version="1.1" xmlns="http://www.w3.org/2000/svg" xmlns:xlink="http://www.w3.org/1999/xlink" xml:space="preserve" xmlns:serif="http://www.serif.com/" style="fill-rule:evenodd;clip-rule:evenodd;stroke-linejoin:round;stroke-miterlimit:2;">
    <g transform="matrix(1,0,0,1,-367.242,-57.569)">
        <g transform="matrix(1.11081,0,0,1.11081,225.752,-120.898)">
            <rect x="127.376" y="160.664" width="322.811" height="322.811" style="fill:rgb(39,39,39);"/>
        </g>
        <g transform="matrix(1.14905,0,0,1.1463,-0.314691,-98.2524)">
            <rect x="355.69" y="232.233" width="120.222" height="120.222" style="fill:rgb(235,235,235);"/>
        </g>
        <g transform="matrix(0.189322,0,0,0.189322,341.052,123.989)">
            <rect x="355.69" y="232.233" width="120.222" height="120.222" style="fill:rgb(203,78,255);"/>
        </g>
        <g transform="matrix(0.189322,0,0,0.189322,369.897,123.989)">
            <rect x="355.69" y="232.233" width="120.222" height="120.222" style="fill:rgb(203,78,255);"/>
        </g>
        <g transform="matrix(0.189322,0,0,0.189322,398.742,123.989)">
            <rect x="355.69" y="232.233" width="120.222" height="120.222" style="fill:rgb(203,78,255);"/>
        </g>
        <g transform="matrix(0.189322,0,0,0.189322,427.588,123.989)">
            <rect x="355.69" y="232.233" width="120.222" height="120.222" style="fill:rgb(203,78,255);"/>
        </g>
        <g transform="matrix(0.189322,0,0,0.189322,456.433,123.989)">
            <rect x="355.69" y="232.233" width="120.222" height="120.222" style="fill:rgb(203,78,255);"/>
        </g>
        <g transform="matrix(0.189322,0,0,0.189322,341.052,152.751)">
            <rect x="355.69" y="232.233" width="120.222" height="120.222" style="fill:rgb(203,78,255);"/>
        </g>
        <g transform="matrix(0.189322,0,0,0.189322,369.897,152.751)">
            <rect x="355.69" y="232.233" width="120.222" height="120.222" style="fill:rgb(203,78,255);"/>
        </g>
        <g transform="matrix(0.189322,0,0,0.189322,398.742,152.751)">
            <rect x="355.69" y="232.233" width="120.222" height="120.222" style="fill:rgb(203,78,255);"/>
        </g>
        <g transform="matrix(0.189322,0,0,0.189322,427.588,152.751)">
            <rect x="355.69" y="232.233" width="120.222" height="120.222" style="fill:rgb(203,78,255);"/>
        </g>
        <g transform="matrix(0.189322,0,0,0.189322,456.433,152.751)">
            <rect x="355.69" y="232.233" width="120.222" height="120.222" style="fill:rgb(203,78,255);"/>
        </g>
        <g transform="matrix(0.189322,0,0,0.189322,341.052,181.513)">
            <rect x="355.69" y="232.233" width="120.222" height="120.222" style="fill:rgb(203,78,255);"/>
        </g>
        <g transform="matrix(0.189322,0,0,0.189322,369.897,181.513)">
            <rect x="355.69" y="232.233" width="120.222" height="120.222" style="fill:rgb(203,78,255);"/>
        </g>
        <g transform="matrix(0.189322,0,0,0.189322,398.742,181.513)">
            <rect x="355.69" y="232.233" width="120.222" height="120.222" style="fill:rgb(203,78,255);"/>
        </g>
        <g transform="matrix(0.189322,0,0,0.189322,427.588,181.513)">
            <rect x="355.69" y="232.233" width="120.222" height="120.222" style="fill:rgb(203,78,255);"/>
        </g>
        <g transform="matrix(0.189322,0,0,0.189322,456.433,181.513)">
            <rect x="355.69" y="232.233" width="120.222" height="120.222" style="fill:rgb(203,78,255);"/>
        </g>
        <g transform="matrix(0.189322,0,0,0.189322,341.052,210.275)">
            <rect x="355.69" y="232.233" width="120.222" height="120.222" style="fill:rgb(203,78,255);"/>
        </g>
        <g transform="matrix(0.189322,0,0,0.189322,369.897,210.275)">
            <rect x="355.69" y="232.233" width="120.222" height="120.222" style="fill:rgb(203,78,255);"/>
        </g>
        <g transform="matrix(0.189322,0,0,0.189322,398.742,210.275)">
            <rect x="355.69" y="232.233" width="120.222" height="120.222" style="fill:rgb(33,196,0);"/>
        </g>
        <g transform="matrix(0.189322,0,0,0.189322,427.588,210.275)">
            <rect x="355.69" y="232.233" width="120.222" height="120.222" style="fill:rgb(203,78,255);"/>
        </g>
        <g transform="matrix(0.189322,0,0,0.189322,456.433,210.275)">
            <rect x="355.69" y="232.233" width="120.222" height="120.222" style="fill:rgb(203,78,255);"/>
        </g>
        <g transform="matrix(0.189322,0,0,0.189322,341.052,239.038)">
            <rect x="355.69" y="232.233" width="120.222" height="120.222" style="fill:rgb(203,78,255);"/>
        </g>
        <g transform="matrix(0.189322,0,0,0.189322,369.897,239.038)">
            <rect x="355.69" y="232.233" width="120.222" height="120.222" style="fill:rgb(203,78,255);"/>
        </g>
        <g transform="matrix(0.189322,0,0,0.189322,398.742,239.038)">
            <rect x="355.69" y="232.233" width="120.222" height="120.222" style="fill:rgb(203,78,255);"/>
        </g>
        <g transform="matrix(0.189322,0,0,0.189322,427.588,239.038)">
            <rect x="355.69" y="232.233" width="120.222" height="120.222" style="fill:rgb(203,78,255);"/>
        </g>
        <g transform="matrix(0.189322,0,0,0.189322,456.433,239.038)">
            <rect x="355.69" y="232.233" width="120.222" height="120.222" style="fill:rgb(203,78,255);"/>
        </g>
        <g transform="matrix(1.62525,0,0,1.62525,-294.388,-413.947)">
            <text x="426.287px" y="347.848px" style="font-family:'Arial-BoldMT', 'Arial', sans-serif;font-weight:700;font-size:18px;fill:rgb(235,235,235);">1 SQUARE</text>
        </g>
        <g transform="matrix(1.62525,0,0,1.62525,-291.215,-224.258)">
            <text x="432.294px" y="347.848px" style="font-family:'Arial-BoldMT', 'Arial', sans-serif;font-weight:700;font-size:18px;fill:rgb(235,235,235);">1 COLOR</text>
        </g>
        <g transform="matrix(1,0,0,1,264.638,40.1588)">
            <text x="295.875px" y="214.901px" style="font-family:'Arial-BoldMT', 'Arial', sans-serif;font-weight:700;font-size:50.385px;fill:rgb(235,235,235);">= WIN</text>
        </g>
    </g>
</svg>
